<?xml version="1.0" encoding="utf-8"?>
<!-- Generator: Adobe Illustrator 22.0.0, SVG Export Plug-In . SVG Version: 6.00 Build 0)  -->
<svg version="1.1" id="Слой_1" xmlns="http://www.w3.org/2000/svg" xmlns:xlink="http://www.w3.org/1999/xlink" x="0px" y="0px"
	 viewBox="0 0 512 512" style="enable-background:new 0 0 512 512;" xml:space="preserve">
<style type="text/css">
	.st0{fill:#EFEFEF;}
</style>
<path class="st0" d="M256,0C115.4,0,0,115.4,0,256c0,46.4,12.5,91.6,36.2,131.1L0,512l124.9-36.2C164.4,499.5,209.6,512,256,512
	c140.6,0,256-115.4,256-256S396.6,0,256,0z M416.1,364.2l-11.9,11.9c-16.9,16.9-55.6,15.5-80.5,10.7c-82.8-16-179.3-109.6-198-190.6
	c-9.2-40.1-4.1-75,9.2-88.4l11.9-11.9c6.6-6.6,17.3-6.6,23.8,0l47.6,47.7c3.2,3.2,4.9,7.4,4.9,11.9s-1.7,8.7-4.9,11.9l-11.9,11.9
	c-13.1,13.2-13.1,34.5,0,47.7l78.7,77.6c13.2,13.2,34.5,13.2,47.7,0l11.9-11.9c6.1-6.2,17.6-6.2,23.8,0l47.6,47.6
	C422.5,346.8,422.8,357.4,416.1,364.2z"/>
</svg>
